<svg xmlns="http://www.w3.org/2000/svg" xmlns:xlink="http://www.w3.org/1999/xlink" version="1.0" x="0px" y="0px" viewBox="0 0 100 125" enable-background="new 0 0 100 100" xml:space="preserve"><path d="M30.784,45.027c2.719,0,5.03-1.762,5.864-4.201H61.4c0.834,2.439,3.145,4.201,5.864,4.201c3.419,0,6.201-2.782,6.201-6.201  s-2.782-6.201-6.201-6.201c-2.719,0-5.029,1.762-5.864,4.201H36.648c-0.834-2.439-3.146-4.201-5.864-4.201  c-3.419,0-6.201,2.782-6.201,6.201S27.365,45.027,30.784,45.027z M67.264,36.625c1.214,0,2.201,0.987,2.201,2.201  s-0.987,2.201-2.201,2.201s-2.201-0.987-2.201-2.201S66.05,36.625,67.264,36.625z M30.784,36.625c1.214,0,2.202,0.987,2.202,2.201  s-0.988,2.201-2.202,2.201c-1.213,0-2.201-0.987-2.201-2.201S29.57,36.625,30.784,36.625z"/><path d="M28.511,29.629c0.08-0.01,8.175-1.006,20.513-1.006s20.432,0.996,20.512,1.006c0.084,0.011,0.168,0.016,0.251,0.016  c0.994,0,1.855-0.739,1.982-1.751c0.137-1.096-0.639-2.096-1.735-2.233c-0.337-0.042-8.4-1.037-21.011-1.037  S28.35,25.618,28.013,25.66c-1.096,0.138-1.872,1.138-1.735,2.233C26.416,28.989,27.41,29.766,28.511,29.629z"/><path d="M87.639,42.941c-1.211-1.212-2.825-1.895-4.544-1.923c-0.627-0.012-1.241,0.07-1.825,0.231v-6.113c0-0.02,0-0.038,0-0.058  c3.019-0.24,5.402-2.773,5.402-5.853c0-3.237-2.634-5.871-5.872-5.871h-2.404c-2.244-5.385-5.266-9.703-6.775-11.86  c-0.285-0.407-0.52-0.743-0.689-0.999c-0.138-0.21-0.315-0.393-0.521-0.537C67.222,7.72,60.026,6.584,49.024,6.584  c-11.003,0-18.199,1.136-21.387,3.375c-0.206,0.145-0.383,0.327-0.521,0.537c-0.169,0.256-0.404,0.592-0.689,0.999  c-1.509,2.157-4.531,6.476-6.775,11.86h-2.404c-3.238,0-5.872,2.634-5.872,5.871c0,3.079,2.383,5.612,5.402,5.853  c0,0.02,0,0.038,0,0.058v16.912c0,1.104,0.896,2,2,2s2-0.896,2-2V35.137c0-0.531,0.042-1.133,0.124-1.79  c0.071-0.569-0.105-1.143-0.485-1.572c-0.379-0.431-0.926-0.677-1.5-0.677h-1.67c-1.032,0-1.872-0.84-1.872-1.871  s0.84-1.871,1.872-1.871h3.76c0.831,0,1.575-0.514,1.87-1.289c2.097-5.518,5.174-9.915,6.827-12.278  c0.193-0.275,0.364-0.521,0.511-0.734c1.47-0.864,5.938-2.47,18.809-2.47c12.871,0,17.339,1.605,18.809,2.47  c0.146,0.214,0.318,0.459,0.511,0.734c1.653,2.363,4.73,6.761,6.827,12.278c0.295,0.775,1.039,1.289,1.87,1.289h3.76  c1.032,0,1.872,0.84,1.872,1.871s-0.84,1.871-1.872,1.871h-1.669c-0.574,0-1.12,0.246-1.499,0.676  c-0.38,0.431-0.557,1.003-0.486,1.571c0.083,0.662,0.125,1.265,0.125,1.792v8.607c0,0.116,0.015,0.229,0.034,0.34l-8.527,8.525  c-1.154-2.658-3.802-4.523-6.881-4.523H32.078c-2.002,0-3.886,0.78-5.303,2.197l-15.731,15.73c-0.781,0.781-0.781,2.047,0,2.828  c0.39,0.391,0.902,0.586,1.414,0.586s1.023-0.195,1.414-0.586l15.731-15.73c0.662-0.661,1.541-1.025,2.475-1.025h29.819  c1.93,0,3.5,1.57,3.5,3.5s-1.57,3.5-3.5,3.5H44.491c-1.104,0-2,0.896-2,2s0.896,2,2,2h17.406c3.259,0,6.031-2.093,7.063-5.002  l12.466-12.465c0.392-0.393,0.994-0.592,1.603-0.602c0.676,0.012,1.309,0.278,1.782,0.752c0.473,0.473,0.732,1.101,0.732,1.769  c0,0.667-0.26,1.295-0.732,1.767L60.914,73.202c-0.473,0.473-1.101,0.733-1.769,0.733H28.953c-0.53,0-1.039,0.211-1.414,0.586  l-15.481,15.48c-0.781,0.781-0.781,2.047,0,2.828c0.391,0.391,0.902,0.586,1.414,0.586s1.024-0.195,1.414-0.586l14.896-14.895  h29.364c1.735,0,3.368-0.676,4.596-1.904l23.897-23.897c1.228-1.228,1.904-2.859,1.904-4.596S88.867,44.169,87.639,42.941z"/><text x="0" y="115" fill="#000000" font-size="5px" font-weight="bold" font-family="'Helvetica Neue', Helvetica, Arial-Unicode, Arial, Sans-serif">Created by Lemon Liu</text><text x="0" y="120" fill="#000000" font-size="5px" font-weight="bold" font-family="'Helvetica Neue', Helvetica, Arial-Unicode, Arial, Sans-serif">from the Noun Project</text></svg>